{"title":"A.Cinderella.Story.Once.Upon.a.Song.2011.DvDRip.x264.AC3-Psycho","uid":6709641,"size":789771653,"categoryP":"video","categoryS":"movies","magnet":"?xt=urn:btih:81a9b74dee255e7dcb5413247f0ac55b369e16bf&amp;dn=A.Cinderella.Story.Once.Upon.a.Song.2011.DvDRip.x264.AC3-Psycho&amp;tr=udp%3A%2F%2Ftracker.openbittorrent.com%3A80&amp;tr=udp%3A%2F%2Fopen.demonii.com%3A1337&amp;tr=udp%3A%2F%2Ftracker.coppersurfer.tk%3A6969&amp;tr=udp%3A%2F%2Fexodus.desync.com%3A6969","seeders":0,"leechers":0,"uploader":"Francisco1206","files":-1,"time":1317306329,"description":"Cyrano De Bergerac meets Cinderella. Over-worked, harried and terrified of being put back in foster care, 17 year old Katie (Lucy Hale) does her stepmother and step-siblings' bidding without complaining. Vocally gifted, Katie feels particularly upset when forced to lay down singing tracks so that her untalented stepsister, Bev Van Ravensway, can hopefully win a recording contract from Massive Records - who's company President, Harvey Morgan, is scouting for new spectacular talent at a talent showcase for the Performing Arts Department at a prestigious private school.\n\nIMDB rating: 7.6/10 (from 162 users)\n\nCAST:\n\nLucy Hale...............Katie Gibbs\nMissi Pyle..............Gail Van Ravensway\nMegan Park..............Beverly Van Ravensway\nFreddie Stroma..........Luke\nEmily Pierce............Party girl\nJessalyn Wanlim.........Angela\nOnira Tares.............Crazy Girl\nTitus Makin Jr..........Mickey O'Malley\nLucy Davenport..........Ms Plumberg\nMatthew Lintz...........Victor\nManu Narayan............Ravi / Tony Gupta\nDikran Tulaine..........Guy morgan\nAndrew Kelly............Hunky Jock #1\nBeth Gosnell............Talent Show Attendee\nAdriana Leonard.........Dancer\n\nFormat                           : Matroska\nFile size                        : 745 MiB\nDuration                         : 1h 28mn\nOverall bit rate                 : 1 177 Kbps\nEncoded date                     : UTC 2011-09-29 12:17:27\nWriting application              : mkvmerge v4.9.1 ('Ich will') creado el Jul 11 2011 23:53:15\nWriting library                  : libebml v1.2.1 + libmatroska v1.1.1\n\nVideo\nID                               : 1\nFormat                           : AVC\nFormat/Info                      : Advanced Video Codec\nFormat profile                   : &lt;a class=&quot;__cf_email__&quot; href=&quot;/cdn-cgi/l/email-protection&quot; data-cfemail=&quot;571a363e39171b647967&quot;&gt;[email&amp;#160;protected]&lt;/a&gt;&lt;script data-cfhash='f9e31' type=&quot;text/javascript&quot;&gt;\n/* &lt;![CDATA[ */!function(){try{var t=&quot;currentScript&quot;in document?document.currentScript:function(){for(var t=document.getElementsByTagName(&quot;script&quot;),e=t.length;e--;)if(t[e].getAttribute(&quot;data-cfhash&quot;))return t[e]}();if(t&amp;&amp;t.previousSibling){var e,r,n,i,c=t.previousSibling,a=c.getAttribute(&quot;data-cfemail&quot;);if(a){for(e=&quot;&quot;,r=parseInt(a.substr(0,2),16),n=2;a.length-n;n+=2)i=parseInt(a.substr(n,2),16)^r,e+=String.fromCharCode(i);e=document.createTextNode(e),c.parentNode.replaceChild(e,c)}t.parentNode.removeChild(t);}}catch(u){}}()/* ]]&gt; */&lt;/script&gt;\nFormat settings, CABAC           : Yes\nFormat settings, ReFrames        : 4 frames\nMuxing mode                      : Container profile=&lt;a class=&quot;__cf_email__&quot; href=&quot;/cdn-cgi/l/email-protection&quot; data-cfemail=&quot;24714a4f4a4b534a64170a14&quot;&gt;[email&amp;#160;protected]&lt;/a&gt;&lt;script data-cfhash='f9e31' type=&quot;text/javascript&quot;&gt;\n/* &lt;![CDATA[ */!function(){try{var t=&quot;currentScript&quot;in document?document.currentScript:function(){for(var t=document.getElementsByTagName(&quot;script&quot;),e=t.length;e--;)if(t[e].getAttribute(&quot;data-cfhash&quot;))return t[e]}();if(t&amp;&amp;t.previousSibling){var e,r,n,i,c=t.previousSibling,a=c.getAttribute(&quot;data-cfemail&quot;);if(a){for(e=&quot;&quot;,r=parseInt(a.substr(0,2),16),n=2;a.length-n;n+=2)i=parseInt(a.substr(n,2),16)^r,e+=String.fromCharCode(i);e=document.createTextNode(e),c.parentNode.replaceChild(e,c)}t.parentNode.removeChild(t);}}catch(u){}}()/* ]]&gt; */&lt;/script&gt;\nCodec ID                         : V_MPEG4/ISO/AVC\nDuration                         : 1h 28mn\nBit rate                         : 1 026 Kbps\nNominal bit rate                 : 1 040 Kbps\nWidth                            : 720 pixels\nHeight                           : 400 pixels\nDisplay aspect ratio             : 16:9\nFrame rate mode                  : Variable\nFrame rate                       : 23.976 fps\nResolution                       : 8 bits\nColorimetry                      : 4:2:0\nScan type                        : Progressive\nBits/(Pixel*Frame)               : 0.149\nStream size                      : 648 MiB (87%)\nWriting library                  : x264 core 112\n\nAudio\nID                               : 2\nFormat                           : AC-3\nFormat/Info                      : Audio Coding 3\nCodec ID                         : A_AC3\nDuration                         : 1h 28mn\nBit rate mode                    : Constant\nBit rate                         : 128 Kbps\nChannel(s)                       : 2 channels\nChannel positions                : Front: L R\nSampling rate                    : 48.0 KHz\nStream size                      : 81.0 MiB (11%)\n\nText (subtitles)\nID                               : 3\nFormat                           : VobSub\nCodec ID                         : S_VOBSUB\nCodec ID/Info                    : The same subtitle format used on DVDs\nLanguage                         : Romanian\nLanguage                         : English\nLanguage                         : Spanish","torrent":{"xt":"urn:btih:81a9b74dee255e7dcb5413247f0ac55b369e16bf","amp;dn":"A.Cinderella.Story.Once.Upon.a.Song.2011.DvDRip.x264.AC3-Psycho","amp;tr":["udp%3A%2F%2Ftracker.openbittorrent.com%3A80","udp%3A%2F%2Fopen.demonii.com%3A1337","udp%3A%2F%2Ftracker.coppersurfer.tk%3A6969","udp%3A%2F%2Fexodus.desync.com%3A6969"],"infoHash":"81a9b74dee255e7dcb5413247f0ac55b369e16bf","infoHashBuffer":{"type":"Buffer","data":[129,169,183,77,238,37,94,125,203,84,19,36,127,10,197,91,54,158,22,191]},"announce":[],"urlList":[]}}